<svg width="180.8199951171875px" height="336.8375px" xmlns="http://www.w3.org/2000/svg" viewBox="159.59000244140626 -93.41874999999999 180.8199951171875 336.8375" style="background: rgba(0, 0, 0, 0);" preserveAspectRatio="xMidYMid"><defs><filter id="editing-offset"><feFlood flood-color="#f00" flood-opacity="0.5" result="c1"></feFlood><feFlood flood-color="#0f0" flood-opacity="0.5" result="c2"></feFlood><feFlood flood-color="#00f" flood-opacity="0.5" result="c3"></feFlood><feComposite operator="in" in="c1" in2="SourceAlpha" result="text-c1"></feComposite><feComposite operator="in" in="c2" in2="SourceAlpha" result="text-c2"></feComposite><feComposite operator="in" in="c3" in2="SourceAlpha" result="text-c3"></feComposite><feOffset in="text-c1" dx="-10" dy="0" result="text1"></feOffset><feOffset in="text-c2" dx="10" dy="0" result="text2"></feOffset><feOffset in="text-c3" dx="0" dy="0" result="text3"></feOffset><feMerge><feMergeNode in="text1"></feMergeNode><feMergeNode in="text2"></feMergeNode><feMergeNode in="text3"></feMergeNode></feMerge></filter></defs><g filter="url(#editing-offset)"><g transform="translate(191.3250022828579, 145)"><path d="M81.40-92.40L81.40-92.40L81.40-92.40Q84.40-98.40 84.40-104L84.40-104L84.40-104Q84.40-109.60 83.80-112.70L83.80-112.70L83.80-112.70Q83.20-115.80 81.80-118.20L81.80-118.20L81.80-118.20Q78.80-123.40 72.80-123.40L72.80-123.40L72.80-123.40Q65.40-123.40 59.40-118L59.40-118L59.40-118Q53-112.40 53-103.60L53-103.60L53-103.60Q53-98 56.90-93.70L56.90-93.70L56.90-93.70Q60.80-89.40 66.80-85.40L66.80-85.40L66.80-85.40Q72.80-81.40 79.60-77.40L79.60-77.40L79.60-77.40Q86.40-73.40 92.40-68.60L92.40-68.60L92.40-68.60Q106.20-57.60 106.20-42.80L106.20-42.80L106.20-42.80Q106.20-32.80 100.90-24.30L100.90-24.30L100.90-24.30Q95.60-15.80 86.80-9.60L86.80-9.60L86.80-9.60Q67.60 4 42.20 4L42.20 4L42.20 4Q21.60 4 11-2.70L11-2.70L11-2.70Q0.40-9.40 0.40-19.60L0.40-19.60L0.40-19.60Q0.40-37.80 14.60-42.40L14.60-42.40L14.60-42.40Q18.60-43.80 24.70-43.80L24.70-43.80L24.70-43.80Q30.80-43.80 37.80-41.20L37.80-41.20L37.80-41.20Q34.60-33 34.60-25.60L34.60-25.60L34.60-25.60Q34.60-9.60 46-9.60L46-9.60L46-9.60Q53.40-9.60 59.50-15L59.50-15L59.50-15Q65.60-20.40 65.60-26.50L65.60-26.50L65.60-26.50Q65.60-32.60 61.70-37L61.70-37L61.70-37Q57.80-41.40 52-44.90L52-44.90L52-44.90Q46.20-48.40 39.50-51.80L39.50-51.80L39.50-51.80Q32.80-55.20 27-60L27-60L27-60Q13.40-71 13.40-88.60L13.40-88.60L13.40-88.60Q13.40-100 19-108.90L19-108.90L19-108.90Q24.60-117.80 33.60-123.80L33.60-123.80L33.60-123.80Q51.60-136 73.70-136L73.70-136L73.70-136Q95.80-136 106.50-129.40L106.50-129.40L106.50-129.40Q117.20-122.80 117.20-111.60L117.20-111.60L117.20-111.60Q117.20-101.80 109.60-95.60L109.60-95.60L109.60-95.60Q103-90.40 95-90.40L95-90.40L95-90.40Q87-90.40 81.40-92.40Z"></path></g></g><style>text {
  font-size: 64px;
  font-family: Arial Black;
  dominant-baseline: central;
  text-anchor: middle;
}</style></svg>